<svg width="400px" height="400px" viewBox="0 0 400 400" role="img" xmlns="http://www.w3.org/2000/svg"><path d="M397.234 135.016a231.866 231.866 0 0 1 -227.384 195.334 168.416 168.416 0 0 1 -33.234 -2 101.85 101.85 0 0 1 -84.7 -96.016 98.9 98.9 0 0 1 197.784 -1.4c0.416 16.384 -6.684 30.766 -21.284 31.184 -15.6 0 -22.9 -11.134 -22.9 -26.116v-41.666a25.516 25.516 0 0 0 -25.334 -25.55H145.25a60.8 60.8 0 1 0 44.916 101.334l1.216 -1.834 1.234 2.016a43 43 0 0 0 36.666 17.466 48.484 48.484 0 0 0 44.916 -50.666 131.866 131.866 0 0 0 -3.616 -32.216 123.4 123.4 0 0 0 -244 26.716 124.95 124.95 0 0 0 121.8 123.416s9.15 0.834 19.45 0.584a263.384 263.384 0 0 0 141.25 -42.134c0.6 -0.416 1.2 0.416 0.8 1.016a207.334 207.334 0 0 1 -161.5 66.05 145.734 145.734 0 0 1 -148.334 -149.534 150.816 150.816 0 0 1 60.584 -120.784 147.716 147.716 0 0 1 87.15 -28.766h46.884a131.916 131.916 0 0 0 97.316 -42.966 1.834 1.834 0 0 1 0.984 -0.566 1.866 1.866 0 0 1 2 0.884 1.884 1.884 0 0 1 0.25 1.116 132.234 132.234 0 0 1 -20.45 59.15 1.784 1.784 0 0 0 -0.234 1 1.834 1.834 0 0 0 1.216 1.584 1.816 1.816 0 0 0 1.034 0.066 141.75 141.75 0 0 0 98.55 -81.266 2.584 2.584 0 0 1 0.916 -0.884 2.5 2.5 0 0 1 2.45 0 2.55 2.55 0 0 1 0.9 0.884A179.65 179.65 0 0 1 397.234 135zM148.25 193.8a36.466 36.466 0 1 0 36.466 36.466v-34.034a2.634 2.634 0 0 0 -2.5 -2.5z"/></svg>